<?xml version="1.0" encoding="utf-8"?>
<!-- Generator: Adobe Illustrator 16.0.0, SVG Export Plug-In . SVG Version: 6.00 Build 0)  -->
<!DOCTYPE svg PUBLIC "-//W3C//DTD SVG 1.1//EN" "http://www.w3.org/Graphics/SVG/1.1/DTD/svg11.dtd">
<svg version="1.1" xmlns="http://www.w3.org/2000/svg" xmlns:xlink="http://www.w3.org/1999/xlink" x="0px" y="0px" width="420px"
	 height="400px" viewBox="0 0 420 400" enable-background="new 0 0 420 400" xml:space="preserve">
<g id="Layer_1">
</g>
<g id="Layer_2">
	<g>
		
			<linearGradient id="SVGID_1_" gradientUnits="userSpaceOnUse" x1="-60.4512" y1="142.4053" x2="-60.4512" y2="328.0397" gradientTransform="matrix(0.9678 -0.2516 0.2516 0.9678 223.9539 -9.7072)">
			<stop  offset="0" style="stop-color:#99CCFF"/>
			<stop  offset="1" style="stop-color:#0066CC"/>
		</linearGradient>
		<path fill-rule="evenodd" clip-rule="evenodd" fill="url(#SVGID_1_)" d="M329.242,95.739c-5.197-5.225-26.294,6.505-54.96,29.022
			c10.846,15.87-123.76,150.519-145.118,146.371c-18.438,24.336-27.589,41.91-22.901,46.627
			c9.071,9.104,66.339-33.206,127.918-94.517C295.756,161.933,338.316,104.847,329.242,95.739z"/>
		
			<linearGradient id="SVGID_2_" gradientUnits="userSpaceOnUse" x1="-625.5684" y1="-85.1553" x2="-625.5684" y2="100.4828" gradientTransform="matrix(0.7071 -0.7071 0.7071 0.7071 667.8447 -219.0393)">
			<stop  offset="0" style="stop-color:#99CCFF"/>
			<stop  offset="1" style="stop-color:#0066CC"/>
		</linearGradient>
		<path fill-rule="evenodd" clip-rule="evenodd" fill="url(#SVGID_2_)" d="M156.525,19.866
			c-13.059-13.114-34.281-13.161-47.394-0.103L21.39,107.125c-13.123,13.063-13.164,34.284-0.105,47.397l88.034,87.043
			c47.284-39.763,95.87-88.763,134.29-135.591L156.525,19.866z M125.464,121.162c-2.387,4.07-1.456,16.34-1.387,20.966
			c-2.174-4.078-7.349-15.246-11.418-17.641c-3.574-2.106-15.276-1.178-19.307-1.361c3.426-2.132,14.1-7.013,16.194-10.591
			c2.392-4.07,1.477-16.348,1.387-20.969c2.188,4.07,7.356,15.244,11.426,17.639c3.587,2.104,13.992,1.512,18.03,1.695
			C136.948,113.024,127.575,117.573,125.464,121.162z M147.44,65.025c-3.672,6.254-2.235,25.106-2.138,32.214
			c-3.336-6.266-11.287-23.427-17.538-27.1c-5.506-3.241-23.467-1.817-29.677-2.099c5.287-3.282,21.671-10.771,24.902-16.279
			c3.669-6.254,2.251-25.112,2.12-32.213c3.359,6.261,11.308,23.422,17.549,27.103c5.521,3.235,21.51,2.318,27.72,2.599
			C165.097,52.519,150.685,59.509,147.44,65.025z"/>
		
			<linearGradient id="SVGID_3_" gradientUnits="userSpaceOnUse" x1="-617.6611" y1="-85.1592" x2="-617.6611" y2="100.4783" gradientTransform="matrix(0.7071 -0.7071 0.7071 0.7071 667.8447 -219.0393)">
			<stop  offset="0" style="stop-color:#99CCFF"/>
			<stop  offset="1" style="stop-color:#0066CC"/>
		</linearGradient>
		<path fill-rule="evenodd" clip-rule="evenodd" fill="url(#SVGID_3_)" d="M301.543,160.896
			c11.597,4.749,22.469,11.807,31.876,21.21c38.03,38.03,38.027,99.906-0.002,137.931c-38.03,38.034-99.898,38.034-137.928,0
			c-9.41-9.411-16.473-20.29-21.221-31.899c-3.39,2.767-6.715,5.418-9.961,7.943c5.305,11.844,12.789,22.935,22.496,32.646
			c42.814,42.814,112.482,42.814,155.297,0c42.82-42.823,42.82-112.49,0.003-155.305c-9.702-9.707-20.8-17.188-32.643-22.495
			C306.953,154.172,304.305,157.497,301.543,160.896z"/>
		
			<linearGradient id="SVGID_4_" gradientUnits="userSpaceOnUse" x1="-617.6611" y1="-85.1563" x2="-617.6611" y2="100.4805" gradientTransform="matrix(0.7071 -0.7071 0.7071 0.7071 667.8447 -219.0393)">
			<stop  offset="0" style="stop-color:#99CCFF"/>
			<stop  offset="1" style="stop-color:#0066CC"/>
		</linearGradient>
		<path fill-rule="evenodd" clip-rule="evenodd" fill="url(#SVGID_4_)" d="M305.647,210.706c-12.163,12.172-31.891,12.172-44.061,0
			c-0.754-0.755-1.461-1.54-2.123-2.348c-5.892,6.185-11.961,12.425-18.209,18.671c0,0.004,0,0,0,0.004l-1.654,1.649
			c-20,19.907-39.969,38.248-58.307,53.636c4.32,11.508,11.084,22.307,20.344,31.571c34.696,34.697,90.941,34.689,125.631,0
			c34.688-34.696,34.691-90.935,0-125.632c-4.695-4.694-9.793-8.739-15.164-12.156C317.14,187.524,315.009,201.346,305.647,210.706z
			"/>
		<linearGradient id="SVGID_5_" gradientUnits="userSpaceOnUse" x1="269.2627" y1="143.917" x2="269.2627" y2="329.5498">
			<stop  offset="0" style="stop-color:#99CCFF"/>
			<stop  offset="1" style="stop-color:#0066CC"/>
		</linearGradient>
		<path fill="url(#SVGID_5_)" d="M347.898,111.561h-12.877c-1.518,3.49-3.671,7.561-6.533,12.28h19.41
			c26.633,0,48.302,21.668,48.302,48.304v157.276c0,26.627-21.669,48.298-48.302,48.298H190.627
			c-26.633,0-48.304-21.671-48.304-48.298v-17.378c-4.352,2.877-8.462,5.396-12.279,7.49v9.888
			c0,33.403,27.174,60.579,60.583,60.579h157.271c33.407,0,60.583-27.176,60.583-60.579V172.145
			C408.481,138.737,381.306,111.561,347.898,111.561z"/>
	</g>
</g>
</svg>
