<?xml version="1.0" encoding="UTF-8" standalone="no"?>
<!-- Generator: Adobe Illustrator 16.0.0, SVG Export Plug-In . SVG Version: 6.00 Build 0)  -->

<svg
   version="1.1"
   x="0px"
   y="0px"
   width="64"
   height="64"
   viewBox="0 0 64 64"
   enable-background="new 0 0 420 400"
   xml:space="preserve"
   id="svg18776"
   xmlns="http://www.w3.org/2000/svg"
   xmlns:svg="http://www.w3.org/2000/svg"><defs
   id="defs18780" />

<g
   id="Layer_2"
   transform="matrix(0.14518087,0,0,0.14518087,-1.6723636,-0.08447188)">
	<g
   id="g18773">
		
			<linearGradient
   id="SVGID_1_"
   gradientUnits="userSpaceOnUse"
   x1="-60.451199"
   y1="142.4053"
   x2="-60.451199"
   y2="328.0397"
   gradientTransform="matrix(0.86085001,-0.2237961,0.2237961,0.86085001,216.79385,20.687869)">
			<stop
   offset="0"
   style="stop-color:#99CCFF"
   id="stop18738" />
			<stop
   offset="1"
   style="stop-color:#0066CC"
   id="stop18740" />
		</linearGradient>
		<path
   fill-rule="evenodd"
   clip-rule="evenodd"
   fill="url(#SVGID_1_)"
   d="m 310.44673,114.48138 c -4.62269,-4.64759 -23.38829,5.78614 -48.88646,25.81483 9.64743,14.11623 -110.08348,133.88539 -129.08125,130.19578 -16.40044,21.64667 -24.54018,37.27859 -20.37024,41.47432 8.06858,8.09794 59.00798,-29.53645 113.78199,-84.07208 54.77045,-54.53384 92.62721,-105.31136 84.55596,-113.41285 z"
   id="path18743"
   style="fill:url(#SVGID_1_);stroke-width:0.889492" />
		
			<linearGradient
   id="SVGID_2_"
   gradientUnits="userSpaceOnUse"
   x1="-625.56842"
   y1="-85.155296"
   x2="-625.56842"
   y2="100.4828"
   gradientTransform="matrix(0.62895954,-0.62895954,0.62895954,0.62895954,611.631,-165.51128)">
			<stop
   offset="0"
   style="stop-color:#99CCFF"
   id="stop18745" />
			<stop
   offset="1"
   style="stop-color:#0066CC"
   id="stop18747" />
		</linearGradient>
		<path
   fill-rule="evenodd"
   clip-rule="evenodd"
   fill="url(#SVGID_2_)"
   d="m 156.81641,46.992983 c -11.61588,-11.664794 -30.49267,-11.7066 -42.15657,-0.09162 L 36.614953,124.60913 c -11.672799,11.61943 -11.709268,30.49533 -0.0934,42.15924 l 78.305507,77.42402 c 42.05873,-35.36886 85.27557,-78.95395 119.44983,-120.60706 z m -27.6285,90.101947 c -2.12322,3.62023 -1.2951,14.53429 -1.23373,18.64908 -1.93375,-3.62735 -6.53687,-13.56119 -10.15621,-15.69152 -3.17905,-1.87327 -13.58788,-1.04782 -17.17342,-1.2106 3.0474,-1.8964 12.54183,-6.23801 14.40443,-9.42061 2.12766,-3.62023 1.31378,-14.54141 1.23372,-18.65175 1.94621,3.62023 6.5431,13.55941 10.16333,15.68975 3.19061,1.87149 12.44577,1.34491 16.03754,1.50768 -3.06074,1.88928 -11.39795,5.93558 -13.27566,9.12797 z m 19.54746,-49.93339 c -3.26621,5.56288 -1.98801,22.33157 -1.90173,28.65408 -2.96734,-5.57356 -10.03969,-20.83812 -15.5999,-24.10522 -4.89754,-2.88285 -20.8737,-1.61621 -26.39745,-1.86705 4.70275,-2.91931 19.27618,-9.580712 22.15012,-14.480032 3.26355,-5.56288 2.00225,-22.336914 1.88573,-28.653194 2.9878,5.569107 10.05837,20.833673 15.60968,24.107892 4.91089,2.877505 19.13297,2.061842 24.65671,2.311789 -4.6974,2.907748 -17.51676,9.125295 -20.40316,14.031735 z"
   id="path18750"
   style="fill:url(#SVGID_2_);stroke-width:0.889492" />
		
			<linearGradient
   id="SVGID_3_"
   gradientUnits="userSpaceOnUse"
   x1="-617.66107"
   y1="-85.159203"
   x2="-617.66107"
   y2="100.4783"
   gradientTransform="matrix(0.62895954,-0.62895954,0.62895954,0.62895954,611.631,-165.51128)">
			<stop
   offset="0"
   style="stop-color:#99CCFF"
   id="stop18752" />
			<stop
   offset="1"
   style="stop-color:#0066CC"
   id="stop18754" />
		</linearGradient>
		<path
   fill-rule="evenodd"
   clip-rule="evenodd"
   fill="url(#SVGID_3_)"
   d="m 285.8087,172.43799 c 10.31544,4.22419 19.98599,10.50223 28.35344,18.86612 33.82737,33.82736 33.8247,88.86555 -0.002,122.68847 -33.82737,33.83092 -88.85844,33.83092 -122.6858,0 -8.37012,-8.37101 -14.6526,-18.04779 -18.8759,-28.3739 -3.01538,2.46123 -5.97294,4.81927 -8.86023,7.06523 4.71875,10.53514 11.37571,20.4005 20.01,29.03835 38.0827,38.08269 100.0518,38.08269 138.13539,0 38.08803,-38.0907 38.08803,-100.05892 0.003,-138.1425 -8.62984,-8.63429 -18.50142,-15.28858 -29.03567,-20.00911 -2.22996,2.8864 -4.58533,5.84396 -7.04211,8.86734 z"
   id="path18757"
   style="fill:url(#SVGID_3_);stroke-width:0.889492" />
		
			<linearGradient
   id="SVGID_4_"
   gradientUnits="userSpaceOnUse"
   x1="-617.66107"
   y1="-85.156303"
   x2="-617.66107"
   y2="100.4805"
   gradientTransform="matrix(0.62895954,-0.62895954,0.62895954,0.62895954,611.631,-165.51128)">
			<stop
   offset="0"
   style="stop-color:#99CCFF"
   id="stop18759" />
			<stop
   offset="1"
   style="stop-color:#0066CC"
   id="stop18761" />
		</linearGradient>
		<path
   fill-rule="evenodd"
   clip-rule="evenodd"
   fill="url(#SVGID_4_)"
   d="m 289.45918,216.74357 c -10.81889,10.82689 -28.36678,10.82689 -39.19189,0 -0.67068,-0.67157 -1.29955,-1.36982 -1.88839,-2.08853 -5.24089,5.50151 -10.63921,11.05193 -16.19676,16.6077 0,0.004 0,0 0,0.004 l -1.47122,1.46677 c -17.78983,17.70711 -35.55209,34.02127 -51.86359,47.70877 3.84261,10.23627 9.85913,19.84189 18.09582,28.08214 30.8618,30.86269 80.89126,30.85558 111.74773,0 30.85468,-30.8618 30.85735,-80.88592 0,-111.74861 -4.17617,-4.17527 -8.7108,-7.77327 -13.48826,-10.81266 4.47948,10.16066 2.58398,22.45521 -5.74344,30.78086 z"
   id="path18764"
   style="fill:url(#SVGID_4_);stroke-width:0.889492" />
		<linearGradient
   id="SVGID_5_"
   gradientUnits="userSpaceOnUse"
   x1="269.2627"
   y1="143.91701"
   x2="269.2627"
   y2="329.5498"
   gradientTransform="matrix(0.88949164,0,0,0.88949164,17.588727,29.322342)">
			<stop
   offset="0"
   style="stop-color:#99CCFF"
   id="stop18766" />
			<stop
   offset="1"
   style="stop-color:#0066CC"
   id="stop18768" />
		</linearGradient>
		<path
   fill="url(#SVGID_5_)"
   d="m 327.04109,128.55492 h -18.9952 c -1.35024,3.10432 -3.77458,6.72544 -6.3203,10.92296 h 25.3155 c 23.68983,0 42.96422,19.2735 42.96422,42.966 v 139.89569 c 0,23.68449 -19.27439,42.96066 -42.96422,42.96066 H 187.14985 c -23.68983,0 -42.96601,-19.27617 -42.96601,-42.96066 v -23.68553 c 0,-4.64047 -7.52687,5.22852 -10.92206,7.09111 v 16.59442 c 0,29.71169 24.17104,53.88451 53.88807,53.88451 h 139.89124 c 29.71525,0 53.88807,-24.17282 53.88807,-53.88451 V 182.44388 c 0,-29.71614 -24.17194,-53.88896 -53.88807,-53.88896 z"
   id="path18771"
   style="fill:url(#SVGID_5_);stroke-width:0.889492" />
	</g>
</g>
</svg>
